<?xml version="1.0" encoding="UTF-8" standalone="no"?><svg xmlns="http://www.w3.org/2000/svg" xmlns:xlink="http://www.w3.org/1999/xlink" contentStyleType="text/css" height="557px" preserveAspectRatio="none" style="width:1565px;height:557px;background:#FFFFFF;" version="1.1" viewBox="0 0 1565 557" width="1565px" zoomAndPan="magnify"><defs/><g><!--MD5=[6a3bf63af39c3179cd22a6db35b75f44]
entity Пользователь--><g id="elem_Пользователь"><ellipse cx="806" cy="249.5" fill="#F1F1F1" rx="8" ry="8" style="stroke:#181818;stroke-width:0.5;"/><path d="M806,257.5 L806,284.5 M793,265.5 L819,265.5 M806,284.5 L793,299.5 M806,284.5 L819,299.5 " fill="none" style="stroke:#181818;stroke-width:0.5;"/><text fill="#000000" font-family="sans-serif" font-size="14" lengthAdjust="spacing" textLength="104" x="754" y="313.9951">Пользователь</text></g><g id="elem_Вход в почту"><ellipse cx="275.9333" cy="397.9867" fill="#F1F1F1" rx="70.4333" ry="16.4867" style="stroke:#181818;stroke-width:0.5;"/><text fill="#000000" font-family="sans-serif" font-size="14" lengthAdjust="spacing" textLength="94" x="225.9333" y="401.7342">Вход в почту</text></g><g id="elem_Войти"><ellipse cx="275.8913" cy="523.6302" fill="#F1F1F1" rx="44.3913" ry="14.6302" style="stroke:#181818;stroke-width:0.5;"/><text fill="#000000" font-family="sans-serif" font-size="14" lengthAdjust="spacing" textLength="46" x="249.8913" y="527.3777">Войти</text></g><g id="elem_Зарегистрироваться"><ellipse cx="101.0118" cy="523.4024" fill="#F1F1F1" rx="95.0118" ry="21.4024" style="stroke:#181818;stroke-width:0.5;"/><text fill="#000000" font-family="sans-serif" font-size="14" lengthAdjust="spacing" textLength="153" x="24.5118" y="526.249">Зарегистрироваться</text></g><g id="elem_Создание папок"><ellipse cx="682.1963" cy="397.9393" fill="#F1F1F1" rx="80.1963" ry="18.4393" style="stroke:#181818;stroke-width:0.5;"/><text fill="#000000" font-family="sans-serif" font-size="14" lengthAdjust="spacing" textLength="119" x="621.1039" y="401.2979">Создание папок</text></g><g id="elem_Именовать папку"><ellipse cx="682.212" cy="523.4424" fill="#F1F1F1" rx="82.712" ry="18.9424" style="stroke:#181818;stroke-width:0.5;"/><text fill="#000000" font-family="sans-serif" font-size="14" lengthAdjust="spacing" textLength="125" x="619.0208" y="526.5215">Именовать папку</text></g><g id="elem_Выбрать где сохранить"><ellipse cx="460.0329" cy="523.3066" fill="#F1F1F1" rx="104.5329" ry="23.3066" style="stroke:#181818;stroke-width:0.5;"/><text fill="#000000" font-family="sans-serif" font-size="14" lengthAdjust="spacing" textLength="174" x="373.0329" y="526.1533">Выбрать где сохранить</text></g><g id="elem_Отправить письмо"><ellipse cx="929.9128" cy="397.9826" fill="#F1F1F1" rx="87.9128" ry="19.9826" style="stroke:#181818;stroke-width:0.5;"/><text fill="#000000" font-family="sans-serif" font-size="14" lengthAdjust="spacing" textLength="137" x="861.4128" y="400.8292">Отправить письмо</text></g><g id="elem_Отправить текст"><ellipse cx="1179.0656" cy="523.6131" fill="#F1F1F1" rx="83.5656" ry="19.1131" style="stroke:#181818;stroke-width:0.5;"/><text fill="#000000" font-family="sans-serif" font-size="14" lengthAdjust="spacing" textLength="127" x="1115.1623" y="526.5974">Отправить текст</text></g><g id="elem_Отправить файл с документом"><ellipse cx="930.2013" cy="523.4403" fill="#F1F1F1" rx="130.2013" ry="28.4403" style="stroke:#181818;stroke-width:0.5;"/><text fill="#000000" font-family="sans-serif" font-size="14" lengthAdjust="spacing" textLength="229" x="815.7013" y="526.2869">Отправить файл с документом</text></g><g id="elem_Получить письмо"><ellipse cx="1264.1379" cy="398.0276" fill="#F1F1F1" rx="83.1379" ry="19.0276" style="stroke:#181818;stroke-width:0.5;"/><text fill="#000000" font-family="sans-serif" font-size="14" lengthAdjust="spacing" textLength="126" x="1200.5914" y="401.0594">Получить письмо</text></g><g id="elem_Просмотр"><ellipse cx="1361.0625" cy="523.5125" fill="#F1F1F1" rx="63.0625" ry="15.0125" style="stroke:#181818;stroke-width:0.5;"/><text fill="#000000" font-family="sans-serif" font-size="14" lengthAdjust="spacing" textLength="73" x="1321.5625" y="527.2601">Просмотр</text></g><g id="elem_Фильтрация спама"><ellipse cx="562.7915" cy="156.6583" fill="#F1F1F1" rx="88.7915" ry="20.1583" style="stroke:#181818;stroke-width:0.5;"/><text fill="#000000" font-family="sans-serif" font-size="14" lengthAdjust="spacing" textLength="139" x="493.2915" y="159.505">Фильтрация спама</text></g><g id="elem_Проверка и анализ спама"><ellipse cx="362.0935" cy="30.8187" fill="#F1F1F1" rx="109.5935" ry="24.3187" style="stroke:#181818;stroke-width:0.5;"/><text fill="#000000" font-family="sans-serif" font-size="14" lengthAdjust="spacing" textLength="185" x="269.5935" y="33.6654">Проверка и анализ спама</text></g><g id="elem_Уведомление"><ellipse cx="578.8073" cy="30.8615" fill="#F1F1F1" rx="72.3073" ry="16.8615" style="stroke:#181818;stroke-width:0.5;"/><text fill="#000000" font-family="sans-serif" font-size="14" lengthAdjust="spacing" textLength="99" x="526.3073" y="34.609">Уведомление</text></g><g id="elem_Управление контактами"><ellipse cx="1050.8679" cy="156.6736" fill="#F1F1F1" rx="106.3679" ry="23.6736" style="stroke:#181818;stroke-width:0.5;"/><text fill="#000000" font-family="sans-serif" font-size="14" lengthAdjust="spacing" textLength="178" x="961.8679" y="159.5203">Управление контактами</text></g><g id="elem_Удалить контакт"><ellipse cx="802.212" cy="30.9424" fill="#F1F1F1" rx="82.712" ry="18.9424" style="stroke:#181818;stroke-width:0.5;"/><text fill="#000000" font-family="sans-serif" font-size="14" lengthAdjust="spacing" textLength="125" x="739.0208" y="34.0215">Удалить контакт</text></g><g id="elem_Редактирование контакта"><ellipse cx="1034.2303" cy="31.2461" fill="#F1F1F1" rx="114.2303" ry="25.2461" style="stroke:#181818;stroke-width:0.5;"/><text fill="#000000" font-family="sans-serif" font-size="14" lengthAdjust="spacing" textLength="195" x="936.7303" y="34.0927">Редактирование контакта</text></g><g id="elem_Добавить контакт"><ellipse cx="774.9744" cy="156.3949" fill="#F1F1F1" rx="87.4744" ry="19.8949" style="stroke:#181818;stroke-width:0.5;"/><text fill="#000000" font-family="sans-serif" font-size="14" lengthAdjust="spacing" textLength="136" x="706.9744" y="159.2416">Добавить контакт</text></g><g id="elem_Экспорт контакта"><ellipse cx="1270.0998" cy="31.22" fill="#F1F1F1" rx="86.5998" ry="19.72" style="stroke:#181818;stroke-width:0.5;"/><text fill="#000000" font-family="sans-serif" font-size="14" lengthAdjust="spacing" textLength="134" x="1203.0998" y="34.0666">Экспорт контакта</text></g><g id="elem_Импорт контакта"><ellipse cx="1475.995" cy="31.199" fill="#F1F1F1" rx="83.995" ry="19.199" style="stroke:#181818;stroke-width:0.5;"/><text fill="#000000" font-family="sans-serif" font-size="14" lengthAdjust="spacing" textLength="128" x="1411.7335" y="34.1356">Импорт контакта</text></g><!--MD5=[835cb5c4e6cd67cfeaac2943aa1b52cd]
link Пользователь to Вход в почту--><g id="link_Пользователь_Вход в почту"><path d="M753.73,291.54 C651.23,314.17 425.13,364.08 325.17,386.14 " fill="none" id="Пользователь-Вход в почту" style="stroke:#181818;stroke-width:1.0;"/></g><!--MD5=[9cab65255164f7fc0dcfdb01dffc42ea]
reverse link Вход в почту to Войти--><g id="link_Вход в почту_Войти"><path d="M276,419.79 C276,445.15 276,487.31 276,508.88 " fill="none" id="Вход в почту-backto-Войти" style="stroke:#181818;stroke-width:1.0;"/><polygon fill="#181818" points="276,414.64,272,423.64,276,419.64,280,423.64,276,414.64" style="stroke:#181818;stroke-width:1.0;"/></g><!--MD5=[7635d9c2bd834ed00a444694d829d556]
reverse link Вход в почту to Зарегистрироваться--><g id="link_Вход в почту_Зарегистрироваться"><path d="M250.67,416.87 C218.28,439.73 162.37,479.19 128.82,502.87 " fill="none" id="Вход в почту-backto-Зарегистрироваться" style="stroke:#181818;stroke-width:1.0;"/><polygon fill="#181818" points="254.89,413.9,245.2266,415.8024,250.7992,416.775,249.8266,422.3476,254.89,413.9" style="stroke:#181818;stroke-width:1.0;"/></g><!--MD5=[cfc4b62df8d17a4d7b3f278c3482ecd1]
link Пользователь to Создание папок--><g id="link_Пользователь_Создание папок"><path d="M766.77,317.02 C744.49,338.04 717.65,363.36 700.23,379.8 " fill="none" id="Пользователь-Создание папок" style="stroke:#181818;stroke-width:1.0;"/></g><!--MD5=[f04a84c6310fdec17bee738ab10e4d95]
link Создание папок to Именовать папку--><g id="link_Создание папок_Именовать папку"><path d="M682,416.69 C682,438.4 682,475.25 682,499.23 " fill="none" id="Создание папок-to-Именовать папку" style="stroke:#181818;stroke-width:1.0;stroke-dasharray:7.0,7.0;"/><polygon fill="#181818" points="682,504.44,686,495.44,682,499.44,678,495.44,682,504.44" style="stroke:#181818;stroke-width:1.0;"/><text fill="#000000" font-family="sans-serif" font-size="13" lengthAdjust="spacing" textLength="45" x="683" y="461.0669">include</text></g><!--MD5=[7fa631757834a3b42be9980262371f44]
link Создание папок to Выбрать где сохранить--><g id="link_Создание папок_Выбрать где сохранить"><path d="M652.52,415.4 C613.98,436.84 546.21,474.54 502.22,499.01 " fill="none" id="Создание папок-to-Выбрать где сохранить" style="stroke:#181818;stroke-width:1.0;stroke-dasharray:7.0,7.0;"/><polygon fill="#181818" points="497.78,501.48,507.59,500.6058,502.1508,499.0518,503.7048,493.6126,497.78,501.48" style="stroke:#181818;stroke-width:1.0;"/><text fill="#000000" font-family="sans-serif" font-size="13" lengthAdjust="spacing" textLength="45" x="592" y="461.0669">include</text></g><!--MD5=[b159f6120fd46fbfc3ffb9269a647c15]
link Пользователь to Отправить письмо--><g id="link_Пользователь_Отправить письмо"><path d="M845.23,317.02 C866.8,337.37 892.64,361.75 910.08,378.2 " fill="none" id="Пользователь-Отправить письмо" style="stroke:#181818;stroke-width:1.0;"/></g><!--MD5=[0606fad36d05d1373dd90269ce6fc712]
link Отправить письмо to Отправить текст--><g id="link_Отправить письмо_Отправить текст"><path d="M965.15,416.43 C1011.64,439.49 1093.27,479.98 1141.1,503.7 " fill="none" id="Отправить письмо-to-Отправить текст" style="stroke:#181818;stroke-width:1.0;stroke-dasharray:7.0,7.0;"/><polygon fill="#181818" points="1145.62,505.95,1139.3299,498.3715,1141.1393,503.7311,1135.7797,505.5406,1145.62,505.95" style="stroke:#181818;stroke-width:1.0;"/><text fill="#000000" font-family="sans-serif" font-size="13" lengthAdjust="spacing" textLength="45" x="1063" y="461.0669">include</text></g><!--MD5=[9423907e7098a3c9ac163329290f5c6a]
link Отправить письмо to Отправить файл с документом--><g id="link_Отправить письмо_Отправить файл с документом"><path d="M930,418.03 C930,437.15 930,466.99 930,489.9 " fill="none" id="Отправить письмо-to-Отправить файл с документом" style="stroke:#181818;stroke-width:1.0;stroke-dasharray:7.0,7.0;"/><polygon fill="#181818" points="930,494.97,934,485.97,930,489.97,926,485.97,930,494.97" style="stroke:#181818;stroke-width:1.0;"/><text fill="#000000" font-family="sans-serif" font-size="13" lengthAdjust="spacing" textLength="45" x="931" y="461.0669">include</text></g><!--MD5=[717a97ba2f7e4db25298ff80fa0e6534]
link Пользователь to Получить письмо--><g id="link_Пользователь_Получить письмо"><path d="M858.09,293.31 C945.78,315.71 1121.95,360.71 1210.54,383.34 " fill="none" id="Пользователь-Получить письмо" style="stroke:#181818;stroke-width:1.0;"/></g><!--MD5=[0267fc5969282d3aa0cbbbf2e3a6ce4c]
link Получить письмо to Просмотр--><g id="link_Получить письмо_Просмотр"><path d="M1278.1,416.96 C1296.41,440.26 1328.17,480.7 1346.61,504.18 " fill="none" id="Получить письмо-to-Просмотр" style="stroke:#181818;stroke-width:1.0;stroke-dasharray:7.0,7.0;"/><polygon fill="#181818" points="1349.89,508.36,1347.4764,498.8115,1346.8015,504.4279,1341.1851,503.753,1349.89,508.36" style="stroke:#181818;stroke-width:1.0;"/><text fill="#000000" font-family="sans-serif" font-size="13" lengthAdjust="spacing" textLength="45" x="1317" y="461.0669">include</text></g><!--MD5=[9a8bad84e66ef4fde2dc6958df048e76]
link Фильтрация спама to Пользователь--><g id="link_Фильтрация спама_Пользователь"><path d="M598.07,174.89 C638.95,195.16 706.89,228.85 753.92,252.18 " fill="none" id="Фильтрация спама-Пользователь" style="stroke:#181818;stroke-width:1.0;"/></g><!--MD5=[489d54731fc7d0b465349b7da2def158]
reverse link Проверка и анализ спама to Фильтрация спама--><g id="link_Проверка и анализ спама_Фильтрация спама"><path d="M403.04,57.22 C441.91,81.1 499.29,116.35 533.72,137.51 " fill="none" id="Проверка и анализ спама-backto-Фильтрация спама" style="stroke:#181818;stroke-width:1.0;stroke-dasharray:7.0,7.0;"/><polygon fill="#181818" points="398.4,54.36,403.9564,62.4918,402.6544,56.9869,408.1593,55.6848,398.4,54.36" style="stroke:#181818;stroke-width:1.0;"/><text fill="#000000" font-family="sans-serif" font-size="13" lengthAdjust="spacing" textLength="45" x="476" y="99.0669">include</text></g><!--MD5=[b9feda8537e6ddcaa5dcd3dba69032e4]
link Уведомление to Фильтрация спама--><g id="link_Уведомление_Фильтрация спама"><path d="M576.91,48.15 C574.17,69.27 569.35,106.47 566.17,131.05 " fill="none" id="Уведомление-to-Фильтрация спама" style="stroke:#181818;stroke-width:1.0;stroke-dasharray:7.0,7.0;"/><polygon fill="#181818" points="565.51,136.1,570.6342,127.6892,566.153,131.1415,562.7007,126.6603,565.51,136.1" style="stroke:#181818;stroke-width:1.0;"/><text fill="#000000" font-family="sans-serif" font-size="13" lengthAdjust="spacing" textLength="44" x="573" y="99.0669">extend</text></g><!--MD5=[49384a989820a823e0679d14a135c367]
link Управление контактами to Пользователь--><g id="link_Управление контактами_Пользователь"><path d="M1008.88,178.21 C967.15,198.74 903.15,230.22 858.21,252.32 " fill="none" id="Управление контактами-Пользователь" style="stroke:#181818;stroke-width:1.0;"/></g><!--MD5=[82ecfd18f187193f3ae3e1be5d7545af]
reverse link Удалить контакт to Управление контактами--><g id="link_Удалить контакт_Управление контактами"><path d="M839.91,50.8 C885.52,73.43 961.86,111.29 1009.16,134.75 " fill="none" id="Удалить контакт-backto-Управление контактами" style="stroke:#181818;stroke-width:1.0;stroke-dasharray:7.0,7.0;"/><polygon fill="#181818" points="835.32,48.53,841.6004,56.1166,839.7978,50.7547,845.1598,48.9521,835.32,48.53" style="stroke:#181818;stroke-width:1.0;"/><text fill="#000000" font-family="sans-serif" font-size="13" lengthAdjust="spacing" textLength="45" x="943" y="99.0669">include</text></g><!--MD5=[58cc0e290c5e32e91a0c16d96b8c8668]
reverse link Редактирование контакта to Управление контактами--><g id="link_Редактирование контакта_Управление контактами"><path d="M1038.02,61.21 C1041.03,83.08 1045.09,112.56 1047.86,132.71 " fill="none" id="Редактирование контакта-backto-Управление контактами" style="stroke:#181818;stroke-width:1.0;stroke-dasharray:7.0,7.0;"/><polygon fill="#181818" points="1037.32,56.11,1034.5947,65.5743,1038.0071,61.0626,1042.5188,64.475,1037.32,56.11" style="stroke:#181818;stroke-width:1.0;"/><text fill="#000000" font-family="sans-serif" font-size="13" lengthAdjust="spacing" textLength="45" x="1045" y="99.0669">include</text></g><!--MD5=[f730e7f7481934dd5186c3c3582877fe]
reverse link Добавить контакт to Управление контактами--><g id="link_Добавить контакт_Управление контактами"><path d="M867.9,156.5 C892.39,156.5 919.01,156.5 944.16,156.5 " fill="none" id="Добавить контакт-backto-Управление контактами" style="stroke:#181818;stroke-width:1.0;stroke-dasharray:7.0,7.0;"/><polygon fill="#181818" points="862.71,156.5,871.71,160.5,867.71,156.5,871.71,152.5,862.71,156.5" style="stroke:#181818;stroke-width:1.0;"/><text fill="#000000" font-family="sans-serif" font-size="13" lengthAdjust="spacing" textLength="45" x="881" y="149.5669">include</text></g><!--MD5=[5f0d5be71b1aa70f4578c9f19dd74ce2]
link Экспорт контакта to Управление контактами--><g id="link_Экспорт контакта_Управление контактами"><path d="M1239.09,49.43 C1200.86,70.99 1135.64,107.77 1092.93,131.86 " fill="none" id="Экспорт контакта-to-Управление контактами" style="stroke:#181818;stroke-width:1.0;stroke-dasharray:7.0,7.0;"/><polygon fill="#181818" points="1088.35,134.44,1098.1529,133.4895,1092.7017,131.9778,1094.2134,126.5267,1088.35,134.44" style="stroke:#181818;stroke-width:1.0;"/><text fill="#000000" font-family="sans-serif" font-size="13" lengthAdjust="spacing" textLength="44" x="1175" y="99.0669">extend</text></g><!--MD5=[7d6e716ea8410642b1e46c6d4673703a]
link Импорт контакта to Управление контактами--><g id="link_Импорт контакта_Управление контактами"><path d="M1426.42,46.41 C1350.2,68.56 1204.11,111.01 1118.37,135.92 " fill="none" id="Импорт контакта-to-Управление контактами" style="stroke:#181818;stroke-width:1.0;stroke-dasharray:7.0,7.0;"/><polygon fill="#181818" points="1113.32,137.39,1123.0763,138.7368,1118.1238,136.0032,1120.8574,131.0507,1113.32,137.39" style="stroke:#181818;stroke-width:1.0;"/><text fill="#000000" font-family="sans-serif" font-size="13" lengthAdjust="spacing" textLength="44" x="1290" y="99.0669">extend</text></g><!--MD5=[2527ce0b6468157b0e1154e092587f8e]
@startuml
actor Пользователь
Пользователь - - (Вход в почту)
:Вход в почту: <- - (Войти) 
:Вход в почту: <- - (Зарегистрироваться) 
Пользователь - - (Создание папок)
:Создание папок: ..> (Именовать папку) :include
:Создание папок: ..> (Выбрать где сохранить) :include
Пользователь - - (Отправить письмо)
:Отправить письмо: ..> (Отправить текст) :include
:Отправить письмо: ..> (Отправить файл с документом) :include
Пользователь - - (Получить письмо)
:Получить письмо: ..> (Просмотр) :include
(Фильтрация спама) - - Пользователь
(Проверка и анализ спама) <.. :Фильтрация спама: :include
(Уведомление) ..> :Фильтрация спама: :extend
(Управление контактами) - - Пользователь
(Удалить контакт) <.. :Управление контактами: :include
(Редактирование контакта) <.. :Управление контактами: :include
(Добавить контакт) <. :Управление контактами: :include
(Экспорт контакта) ..> :Управление контактами: :extend
(Импорт контакта) ..> :Управление контактами: :extend
@enduml

PlantUML version 1.2022.7(Mon Aug 22 17:01:30 UTC 2022)
(GPL source distribution)
Java Runtime: OpenJDK Runtime Environment
JVM: OpenJDK 64-Bit Server VM
Default Encoding: UTF-8
Language: en
Country: null
--></g></svg>
